<svg width="779" height="1024" viewBox="0 0 779 1024" fill="none" xmlns="http://www.w3.org/2000/svg">
<g opacity="0.3">
<g clip-path="url(#clip0_142_4544)">
<path fill-rule="evenodd" clip-rule="evenodd" d="M170.667 0H85.3333C85.3333 47.1283 47.1283 85.3333 0 85.3333V170.667C94.2566 170.667 170.667 94.2566 170.667 0Z" fill="#C4C4C4"/>
</g>
<g clip-path="url(#clip1_142_4544)">
<rect x="221.866" y="51.2" width="68.2667" height="68.2667" fill="#5BC99A"/>
</g>
<g clip-path="url(#clip2_142_4544)">
<rect x="375.467" y="170.667" width="170.667" height="34.1333" transform="rotate(-90 375.467 170.667)" fill="#5BC99A"/>
<rect x="443.734" y="170.667" width="170.667" height="34.1333" transform="rotate(-90 443.734 170.667)" fill="#5BC99A"/>
</g>
<g clip-path="url(#clip3_142_4544)">
<rect width="170.667" height="170.667" transform="translate(512)" fill="#5BC99A"/>
<path fill-rule="evenodd" clip-rule="evenodd" d="M597.333 0C550.205 0 512 38.205 512 85.3333C512 132.462 550.205 170.667 597.333 170.667C644.462 170.667 682.667 132.462 682.667 85.3333C682.667 38.205 644.462 0 597.333 0ZM597.333 31.698L543.698 85.3333L597.333 138.969L650.969 85.3333L597.333 31.698Z" fill="#023047"/>
</g>
<g clip-path="url(#clip4_142_4544)">
<path d="M682.666 0L853.333 0V170.667C759.076 170.667 682.666 94.2566 682.666 0Z" fill="#C4C4C4"/>
<path d="M767.999 0L853.333 0V85.3333C806.204 85.3333 767.999 47.1283 767.999 0Z" fill="#999999"/>
</g>
<g clip-path="url(#clip5_142_4544)">
<rect width="170.667" height="170.667" transform="translate(0 170.667)" fill="#219EBC"/>
<path d="M0 170.667C94.2566 170.667 170.667 247.077 170.667 341.334H0L0 170.667Z" fill="#C4C4C4"/>
<path d="M0 256C47.1283 256 85.3333 294.205 85.3333 341.334H0L0 256Z" fill="#999999"/>
</g>
<g clip-path="url(#clip6_142_4544)">
<rect y="375.466" width="170.667" height="34.1333" fill="#5BC99A"/>
<rect y="443.733" width="170.667" height="34.1333" fill="#5BC99A"/>
</g>
<g clip-path="url(#clip7_142_4544)">
<rect x="51.2" y="563.2" width="68.2667" height="68.2667" rx="34.1333" fill="#023047"/>
</g>
<g clip-path="url(#clip8_142_4544)">
<rect x="34.1333" y="716.8" width="34.1333" height="34.1333" fill="#5BC99A"/>
<rect x="34.1333" y="785.067" width="34.1333" height="34.1333" fill="#5BC99A"/>
<rect x="102.4" y="716.8" width="34.1333" height="34.1333" fill="#5BC99A"/>
<rect x="102.4" y="785.067" width="34.1333" height="34.1333" fill="#5BC99A"/>
</g>
<g clip-path="url(#clip9_142_4544)">
<path d="M0 938.667C47.1283 938.667 85.3333 976.872 85.3333 1024H0L0 938.667Z" fill="#C4C4C4"/>
</g>
<g clip-path="url(#clip10_142_4544)">
<rect x="256" y="256" width="85.3333" height="85.3333" fill="#5BC99A"/>
</g>
<g clip-path="url(#clip11_142_4544)">
<rect width="170.667" height="170.667" transform="translate(170.666 341.333)" fill="#6B3AC9"/>
<rect x="256" y="341.333" width="85.3333" height="85.3333" fill="#219EBC"/>
</g>
<g clip-path="url(#clip12_142_4544)">
<rect x="170.666" y="512" width="170.667" height="170.667" rx="85.3333" fill="#6B3AC9"/>
</g>
<g clip-path="url(#clip13_142_4544)">
<path d="M170.666 768C217.795 768 256 806.205 256 853.334H170.666V768Z" fill="#C4C4C4"/>
</g>
<g clip-path="url(#clip14_142_4544)">
<path d="M255.999 853.334H341.333V938.667C294.204 938.667 255.999 900.462 255.999 853.334Z" fill="#C4C4C4"/>
</g>
<g clip-path="url(#clip15_142_4544)">
<rect width="170.667" height="170.667" transform="translate(341.334 170.667)" fill="#6B3AC9"/>
<rect x="341.334" y="256" width="85.3333" height="85.3333" fill="#023047"/>
</g>
<g clip-path="url(#clip16_142_4544)">
<rect x="341.334" y="341.333" width="85.3333" height="85.3333" fill="#6B3AC9"/>
</g>
<g clip-path="url(#clip17_142_4544)">
<path d="M426.667 682.667C426.667 635.538 464.872 597.333 512 597.333V682.667H426.667Z" fill="#C4C4C4"/>
</g>
<g clip-path="url(#clip18_142_4544)">
<path fill-rule="evenodd" clip-rule="evenodd" d="M426.667 682.667H341.334C341.334 776.924 417.744 853.334 512 853.334V768C464.872 768 426.667 729.795 426.667 682.667Z" fill="#C4C4C4"/>
</g>
<g clip-path="url(#clip19_142_4544)">
<rect x="426.667" y="938.667" width="85.3333" height="85.3333" fill="#023047"/>
</g>
<g clip-path="url(#clip20_142_4544)">
<rect x="512" y="170.667" width="85.3333" height="85.3333" fill="#023047"/>
</g>
<g clip-path="url(#clip21_142_4544)">
<rect x="512" y="426.667" width="85.3333" height="85.3333" fill="#023047"/>
</g>
<g clip-path="url(#clip22_142_4544)">
<rect width="170.667" height="170.667" transform="translate(512 512)" fill="#219EBC"/>
<rect x="549.062" y="597.333" width="68.2667" height="68.2667" transform="rotate(-45 549.062 597.333)" fill="#023047"/>
</g>
<g clip-path="url(#clip23_142_4544)">
<path d="M512 682.667H597.333C597.333 729.795 559.128 768 512 768V682.667Z" fill="#C4C4C4"/>
</g>
<g clip-path="url(#clip24_142_4544)">
<rect width="170.667" height="170.667" transform="translate(512 853.334)" fill="#5BC99A"/>
<rect x="546.133" y="887.467" width="34.1333" height="34.1333" rx="17.0667" fill="#6B3AC9"/>
<rect x="546.133" y="955.734" width="34.1333" height="34.1333" rx="17.0667" fill="#6B3AC9"/>
<rect x="614.4" y="887.467" width="34.1333" height="34.1333" rx="17.0667" fill="#6B3AC9"/>
<rect x="614.4" y="955.734" width="34.1333" height="34.1333" rx="17.0667" fill="#6B3AC9"/>
</g>
<g clip-path="url(#clip25_142_4544)">
<rect x="682.666" y="170.667" width="170.667" height="170.667" rx="85.3333" fill="#023047"/>
</g>
<g clip-path="url(#clip26_142_4544)">
<rect x="682.666" y="375.466" width="170.667" height="34.1333" fill="#5BC99A"/>
<rect x="682.666" y="443.733" width="170.667" height="34.1333" fill="#5BC99A"/>
</g>
<g clip-path="url(#clip27_142_4544)">
<rect x="733.866" y="563.2" width="68.2667" height="68.2667" fill="#5BC99A"/>
</g>
<g clip-path="url(#clip28_142_4544)">
<rect x="682.666" y="768" width="85.3333" height="85.3333" fill="#023047"/>
</g>
<g clip-path="url(#clip29_142_4544)">
<rect width="170.667" height="170.667" transform="translate(682.666 853.334)" fill="#6B3AC9"/>
<path d="M767.999 1024C767.999 976.872 806.204 938.667 853.333 938.667V1024H767.999Z" fill="#C4C4C4"/>
</g>
</g>
<defs>
<clipPath id="clip0_142_4544">
<rect width="170.667" height="170.667" fill="white"/>
</clipPath>
<clipPath id="clip1_142_4544">
<rect width="170.667" height="170.667" fill="white" transform="translate(170.666)"/>
</clipPath>
<clipPath id="clip2_142_4544">
<rect width="170.667" height="170.667" fill="white" transform="translate(341.334)"/>
</clipPath>
<clipPath id="clip3_142_4544">
<rect width="170.667" height="170.667" fill="white" transform="translate(512)"/>
</clipPath>
<clipPath id="clip4_142_4544">
<rect width="170.667" height="170.667" fill="white" transform="translate(682.666)"/>
</clipPath>
<clipPath id="clip5_142_4544">
<rect width="170.667" height="170.667" fill="white" transform="translate(0 170.667)"/>
</clipPath>
<clipPath id="clip6_142_4544">
<rect width="170.667" height="170.667" fill="white" transform="translate(0 341.333)"/>
</clipPath>
<clipPath id="clip7_142_4544">
<rect width="170.667" height="170.667" fill="white" transform="translate(0 512)"/>
</clipPath>
<clipPath id="clip8_142_4544">
<rect width="170.667" height="170.667" fill="white" transform="translate(0 682.667)"/>
</clipPath>
<clipPath id="clip9_142_4544">
<rect width="170.667" height="170.667" fill="white" transform="translate(0 853.334)"/>
</clipPath>
<clipPath id="clip10_142_4544">
<rect width="170.667" height="170.667" fill="white" transform="translate(170.666 170.667)"/>
</clipPath>
<clipPath id="clip11_142_4544">
<rect width="170.667" height="170.667" fill="white" transform="translate(170.666 341.333)"/>
</clipPath>
<clipPath id="clip12_142_4544">
<rect width="170.667" height="170.667" fill="white" transform="translate(170.666 512)"/>
</clipPath>
<clipPath id="clip13_142_4544">
<rect width="170.667" height="170.667" fill="white" transform="translate(170.666 682.667)"/>
</clipPath>
<clipPath id="clip14_142_4544">
<rect width="170.667" height="170.667" fill="white" transform="translate(170.666 853.334)"/>
</clipPath>
<clipPath id="clip15_142_4544">
<rect width="170.667" height="170.667" fill="white" transform="translate(341.334 170.667)"/>
</clipPath>
<clipPath id="clip16_142_4544">
<rect width="170.667" height="170.667" fill="white" transform="translate(341.334 341.333)"/>
</clipPath>
<clipPath id="clip17_142_4544">
<rect width="170.667" height="170.667" fill="white" transform="translate(341.334 512)"/>
</clipPath>
<clipPath id="clip18_142_4544">
<rect width="170.667" height="170.667" fill="white" transform="translate(341.334 682.667)"/>
</clipPath>
<clipPath id="clip19_142_4544">
<rect width="170.667" height="170.667" fill="white" transform="translate(341.334 853.334)"/>
</clipPath>
<clipPath id="clip20_142_4544">
<rect width="170.667" height="170.667" fill="white" transform="translate(512 170.667)"/>
</clipPath>
<clipPath id="clip21_142_4544">
<rect width="170.667" height="170.667" fill="white" transform="translate(512 341.333)"/>
</clipPath>
<clipPath id="clip22_142_4544">
<rect width="170.667" height="170.667" fill="white" transform="translate(512 512)"/>
</clipPath>
<clipPath id="clip23_142_4544">
<rect width="170.667" height="170.667" fill="white" transform="translate(512 682.667)"/>
</clipPath>
<clipPath id="clip24_142_4544">
<rect width="170.667" height="170.667" fill="white" transform="translate(512 853.334)"/>
</clipPath>
<clipPath id="clip25_142_4544">
<rect width="170.667" height="170.667" fill="white" transform="translate(682.666 170.667)"/>
</clipPath>
<clipPath id="clip26_142_4544">
<rect width="170.667" height="170.667" fill="white" transform="translate(682.666 341.333)"/>
</clipPath>
<clipPath id="clip27_142_4544">
<rect width="170.667" height="170.667" fill="white" transform="translate(682.666 512)"/>
</clipPath>
<clipPath id="clip28_142_4544">
<rect width="170.667" height="170.667" fill="white" transform="translate(682.666 682.667)"/>
</clipPath>
<clipPath id="clip29_142_4544">
<rect width="170.667" height="170.667" fill="white" transform="translate(682.666 853.334)"/>
</clipPath>
</defs>
</svg>
