<svg width="58" height="50" viewBox="0 0 58 50" fill="none" xmlns="http://www.w3.org/2000/svg">
<g opacity="0.05">
<g filter="url(#filter0_dd_235_1714)">
<path d="M32.2784 30.8695C39.7163 30.4075 45.3445 32.6235 44.8495 35.8192C44.3545 39.0148 37.9236 41.9799 30.4858 42.4419C23.0479 42.9039 17.4197 40.6879 17.9147 37.4923C18.4097 34.2966 24.8406 31.3315 32.2784 30.8695Z" fill="white"/>
</g>
<g filter="url(#filter1_dd_235_1714)">
<path d="M46.4864 21.7485C45.3887 20.4524 41.157 18.5192 33.5683 18.9906C24.4671 19.5559 19.2042 23.0402 19.033 24.1451C18.8619 25.2501 23.1371 28.1419 32.2382 27.5766C39.8269 27.1052 44.7457 24.6036 46.2701 23.1446L49.9075 27.0927C48.7327 28.1898 47.1101 29.311 44.8605 30.3491C41.0502 32.109 36.2417 33.2433 31.313 33.5494C26.3843 33.8556 21.8377 33.2988 18.5033 31.9864C13.0065 29.8138 12.6655 26.3781 12.953 24.5228C13.2404 22.6675 14.6627 19.1223 20.946 16.218C24.7563 14.4581 29.5648 13.3239 34.4935 13.0177C39.4222 12.7116 43.9688 13.2684 47.3032 14.5808C49.2717 15.3569 50.5751 16.2964 51.4295 17.2674L46.4864 21.7485Z" fill="url(#paint0_linear_235_1714)"/>
</g>
</g>
<g opacity="0.2">
<g filter="url(#filter2_dd_235_1714)">
<path d="M30.5775 29.299C38.0153 28.8369 43.6436 31.053 43.1486 34.2486C42.6535 37.4443 36.2227 40.4094 28.7848 40.8714C21.347 41.3334 15.7187 39.1173 16.2138 35.9217C16.7088 32.7261 23.1397 29.761 30.5775 29.299Z" fill="white"/>
</g>
<g filter="url(#filter3_dd_235_1714)">
<path d="M44.7854 20.1778C43.6878 18.8818 39.456 16.9485 31.8673 17.4199C22.7662 17.9852 17.5033 21.4695 17.3321 22.5745C17.1609 23.6794 21.4362 26.5712 30.5373 26.0059C38.126 25.5345 43.0448 23.0329 44.5692 21.574L48.2066 25.5221C47.0318 26.6191 45.4091 27.7403 43.1596 28.7785C39.3493 30.5384 34.5407 31.6726 29.6121 31.9787C24.6834 32.2849 20.1368 31.7281 16.8024 30.4157C11.3055 28.2431 10.9646 24.8074 11.252 22.9521C11.5394 21.0968 12.9617 17.5517 19.245 14.6473C23.0553 12.8874 27.8639 11.7532 32.7926 11.447C37.7212 11.1409 42.2678 11.6977 45.6022 13.0101C47.5707 13.7862 48.8742 14.7257 49.7286 15.6967L44.7854 20.1778Z" fill="url(#paint1_linear_235_1714)"/>
</g>
</g>
<g opacity="0.4">
<g filter="url(#filter4_dd_235_1714)">
<path d="M29.4 27.5986C36.8378 27.1366 42.4661 29.3527 41.9711 32.5483C41.476 35.7439 35.0452 38.709 27.6074 39.1711C20.1695 39.6331 14.5413 37.417 15.0363 34.2214C15.5313 31.0258 21.9622 28.0606 29.4 27.5986Z" fill="white"/>
</g>
<g filter="url(#filter5_dd_235_1714)">
<path d="M43.608 18.4776C42.5103 17.1816 38.2786 15.2483 30.6898 15.7197C21.5887 16.285 16.3258 19.7693 16.1546 20.8743C15.9835 21.9792 20.2587 24.871 29.3598 24.3057C36.9485 23.8343 41.8673 21.3327 43.3917 19.8738L47.0291 23.8219C45.8543 24.9189 44.2316 26.0401 41.9821 27.0783C38.1718 28.8382 33.3632 29.9724 28.4346 30.2786C23.5059 30.5847 18.9593 30.0279 15.6249 28.7155C10.1281 26.5429 9.78713 23.1073 10.0745 21.2519C10.3619 19.3966 11.7842 15.8515 18.0676 12.9471C21.8779 11.1872 26.6864 10.053 31.6151 9.74685C36.5438 9.4407 41.0904 9.99753 44.4247 11.3099C46.3932 12.0861 47.6967 13.0255 48.5511 13.9965L43.608 18.4776Z" fill="url(#paint2_linear_235_1714)"/>
</g>
</g>
<g opacity="0.6">
<g filter="url(#filter6_dd_235_1714)">
<path d="M27.4376 25.6356C34.8754 25.1736 40.5037 27.3897 40.0087 30.5853C39.5136 33.7809 33.0828 36.746 25.645 37.208C18.2071 37.67 12.5789 35.454 13.0739 32.2584C13.5689 29.0627 19.9998 26.0976 27.4376 25.6356Z" fill="white"/>
</g>
<g filter="url(#filter7_dd_235_1714)">
<path d="M41.6456 16.5146C40.5479 15.2185 36.3162 13.2853 28.7274 13.7567C19.6263 14.322 14.3634 17.8063 14.1922 18.9113C14.0211 20.0162 18.2963 22.908 27.3974 22.3427C34.9861 21.8713 39.9049 19.3697 41.4293 17.9108L45.0667 21.8589C43.8919 22.9559 42.2692 24.0771 40.0197 25.1153C36.2094 26.8752 31.4008 28.0094 26.4722 28.3155C21.5435 28.6217 16.9969 28.0649 13.6625 26.7525C8.16565 24.5799 7.82473 21.1442 8.11213 19.2889C8.39954 17.4336 9.82184 13.8885 16.1052 10.9841C19.9155 9.22423 24.724 8.08999 29.6527 7.78384C34.5814 7.47769 39.128 8.03452 42.4623 9.34692C44.4308 10.123 45.7343 11.0625 46.5887 12.0335L41.6456 16.5146Z" fill="url(#paint3_linear_235_1714)"/>
</g>
</g>
<g filter="url(#filter8_dd_235_1714)">
<path d="M25.3443 23.5426C32.7822 23.0806 38.4104 25.2966 37.9154 28.4923C37.4204 31.6879 30.9895 34.653 23.5517 35.115C16.1139 35.577 10.4856 33.361 10.9806 30.1654C11.4757 26.9697 17.9065 24.0046 25.3443 23.5426Z" fill="white"/>
</g>
<g filter="url(#filter9_dd_235_1714)">
<path d="M39.5523 14.4216C38.4547 13.1255 34.2229 11.1923 26.6342 11.6637C17.533 12.229 12.2701 15.7133 12.099 16.8182C11.9278 17.9232 16.203 20.815 25.3041 20.2497C32.8929 19.7783 37.8116 17.2767 39.336 15.8177L42.9734 19.7658C41.7986 20.8629 40.176 21.9841 37.9264 23.0222C34.1161 24.7821 29.3076 25.9164 24.3789 26.2225C19.4502 26.5287 14.9036 25.9718 11.5692 24.6594C6.07239 22.4869 5.73147 19.0512 6.01887 17.1959C6.30627 15.3406 7.72857 11.7954 14.0119 8.8911C17.8222 7.13121 22.6307 5.99697 27.5594 5.69082C32.4881 5.38467 37.0347 5.9415 40.3691 7.2539C42.3376 8.03002 43.641 8.96946 44.4954 9.94049L39.5523 14.4216Z" fill="url(#paint4_linear_235_1714)"/>
<path d="M37.9051 22.949L37.905 22.949C34.1084 24.7026 29.3119 25.8348 24.3916 26.1405C19.4714 26.4461 14.9364 25.8898 11.6139 24.5821C8.87628 23.5001 7.42929 22.1063 6.70098 20.7589C5.97273 19.4116 5.96009 18.1052 6.10175 17.1908C6.2434 16.2763 6.66497 14.9429 7.82884 13.4781C8.99281 12.0131 10.904 10.4108 14.0333 8.96429C17.8299 7.21072 22.6265 6.07851 27.5467 5.77288C32.4669 5.46726 37.002 6.02352 40.3244 7.33123C42.2483 8.08975 43.531 9.00351 44.3787 9.94693L39.5716 14.3047C38.9838 13.6541 37.6535 12.8715 35.5651 12.3002C33.413 11.7115 30.4493 11.3454 26.6469 11.5816C22.0868 11.8649 18.4848 12.8796 15.9985 13.9645C14.7557 14.5068 13.7896 15.0675 13.1216 15.5646C12.7877 15.813 12.526 16.0473 12.3411 16.2571C12.1582 16.4647 12.0416 16.6585 12.0161 16.8234C11.9905 16.9882 12.0488 17.1712 12.1703 17.3599C12.2931 17.5506 12.4866 17.7566 12.7493 17.968C13.2748 18.3909 14.0842 18.8414 15.1815 19.2383C17.3768 20.0324 20.7313 20.615 25.2914 20.3317C29.0939 20.0955 32.2296 19.3506 34.6077 18.4805C36.9154 17.6362 38.5164 16.6715 39.3191 15.9344L42.8564 19.7739C41.6971 20.842 40.1036 21.9344 37.9051 22.949Z" stroke="#620CCC" stroke-width="0.166076"/>
</g>
<defs>
<filter id="filter0_dd_235_1714" x="11.9801" y="26.0851" width="38.8042" height="23.503" filterUnits="userSpaceOnUse" color-interpolation-filters="sRGB">
<feFlood flood-opacity="0" result="BackgroundImageFix"/>
<feColorMatrix in="SourceAlpha" type="matrix" values="0 0 0 0 0 0 0 0 0 0 0 0 0 0 0 0 0 0 127 0" result="hardAlpha"/>
<feOffset dx="0.590441" dy="0.885662"/>
<feGaussianBlur stdDeviation="0.295221"/>
<feComposite in2="hardAlpha" operator="out"/>
<feColorMatrix type="matrix" values="0 0 0 0 0.560784 0 0 0 0 0.254902 0 0 0 0 0.952941 0 0 0 0.35 0"/>
<feBlend mode="normal" in2="BackgroundImageFix" result="effect1_dropShadow_235_1714"/>
<feColorMatrix in="SourceAlpha" type="matrix" values="0 0 0 0 0 0 0 0 0 0 0 0 0 0 0 0 0 0 127 0" result="hardAlpha"/>
<feOffset dy="1.18088"/>
<feGaussianBlur stdDeviation="2.95221"/>
<feComposite in2="hardAlpha" operator="out"/>
<feColorMatrix type="matrix" values="0 0 0 0 0.494118 0 0 0 0 0.0823529 0 0 0 0 1 0 0 0 0.2 0"/>
<feBlend mode="normal" in2="effect1_dropShadow_235_1714" result="effect2_dropShadow_235_1714"/>
<feBlend mode="normal" in="SourceGraphic" in2="effect2_dropShadow_235_1714" result="shape"/>
</filter>
<filter id="filter1_dd_235_1714" x="6.97694" y="8.21214" width="50.3569" height="32.5046" filterUnits="userSpaceOnUse" color-interpolation-filters="sRGB">
<feFlood flood-opacity="0" result="BackgroundImageFix"/>
<feColorMatrix in="SourceAlpha" type="matrix" values="0 0 0 0 0 0 0 0 0 0 0 0 0 0 0 0 0 0 127 0" result="hardAlpha"/>
<feOffset dx="0.885662" dy="0.885662"/>
<feGaussianBlur stdDeviation="0.295221"/>
<feComposite in2="hardAlpha" operator="out"/>
<feColorMatrix type="matrix" values="0 0 0 0 0.560784 0 0 0 0 0.254902 0 0 0 0 0.952941 0 0 0 0.5 0"/>
<feBlend mode="normal" in2="BackgroundImageFix" result="effect1_dropShadow_235_1714"/>
<feColorMatrix in="SourceAlpha" type="matrix" values="0 0 0 0 0 0 0 0 0 0 0 0 0 0 0 0 0 0 127 0" result="hardAlpha"/>
<feOffset dy="1.18088"/>
<feGaussianBlur stdDeviation="2.95221"/>
<feComposite in2="hardAlpha" operator="out"/>
<feColorMatrix type="matrix" values="0 0 0 0 0.492543 0 0 0 0 0.0808334 0 0 0 0 1 0 0 0 0.2 0"/>
<feBlend mode="normal" in2="effect1_dropShadow_235_1714" result="effect2_dropShadow_235_1714"/>
<feBlend mode="normal" in="SourceGraphic" in2="effect2_dropShadow_235_1714" result="shape"/>
</filter>
<filter id="filter2_dd_235_1714" x="10.2792" y="24.5145" width="38.8042" height="23.503" filterUnits="userSpaceOnUse" color-interpolation-filters="sRGB">
<feFlood flood-opacity="0" result="BackgroundImageFix"/>
<feColorMatrix in="SourceAlpha" type="matrix" values="0 0 0 0 0 0 0 0 0 0 0 0 0 0 0 0 0 0 127 0" result="hardAlpha"/>
<feOffset dx="0.590441" dy="0.885662"/>
<feGaussianBlur stdDeviation="0.295221"/>
<feComposite in2="hardAlpha" operator="out"/>
<feColorMatrix type="matrix" values="0 0 0 0 0.560784 0 0 0 0 0.254902 0 0 0 0 0.952941 0 0 0 0.35 0"/>
<feBlend mode="normal" in2="BackgroundImageFix" result="effect1_dropShadow_235_1714"/>
<feColorMatrix in="SourceAlpha" type="matrix" values="0 0 0 0 0 0 0 0 0 0 0 0 0 0 0 0 0 0 127 0" result="hardAlpha"/>
<feOffset dy="1.18088"/>
<feGaussianBlur stdDeviation="2.95221"/>
<feComposite in2="hardAlpha" operator="out"/>
<feColorMatrix type="matrix" values="0 0 0 0 0.494118 0 0 0 0 0.0823529 0 0 0 0 1 0 0 0 0.2 0"/>
<feBlend mode="normal" in2="effect1_dropShadow_235_1714" result="effect2_dropShadow_235_1714"/>
<feBlend mode="normal" in="SourceGraphic" in2="effect2_dropShadow_235_1714" result="shape"/>
</filter>
<filter id="filter3_dd_235_1714" x="5.27601" y="6.64146" width="50.3569" height="32.5046" filterUnits="userSpaceOnUse" color-interpolation-filters="sRGB">
<feFlood flood-opacity="0" result="BackgroundImageFix"/>
<feColorMatrix in="SourceAlpha" type="matrix" values="0 0 0 0 0 0 0 0 0 0 0 0 0 0 0 0 0 0 127 0" result="hardAlpha"/>
<feOffset dx="0.885662" dy="0.885662"/>
<feGaussianBlur stdDeviation="0.295221"/>
<feComposite in2="hardAlpha" operator="out"/>
<feColorMatrix type="matrix" values="0 0 0 0 0.560784 0 0 0 0 0.254902 0 0 0 0 0.952941 0 0 0 0.5 0"/>
<feBlend mode="normal" in2="BackgroundImageFix" result="effect1_dropShadow_235_1714"/>
<feColorMatrix in="SourceAlpha" type="matrix" values="0 0 0 0 0 0 0 0 0 0 0 0 0 0 0 0 0 0 127 0" result="hardAlpha"/>
<feOffset dy="1.18088"/>
<feGaussianBlur stdDeviation="2.95221"/>
<feComposite in2="hardAlpha" operator="out"/>
<feColorMatrix type="matrix" values="0 0 0 0 0.492543 0 0 0 0 0.0808334 0 0 0 0 1 0 0 0 0.2 0"/>
<feBlend mode="normal" in2="effect1_dropShadow_235_1714" result="effect2_dropShadow_235_1714"/>
<feBlend mode="normal" in="SourceGraphic" in2="effect2_dropShadow_235_1714" result="shape"/>
</filter>
<filter id="filter4_dd_235_1714" x="9.10169" y="22.8142" width="38.8042" height="23.503" filterUnits="userSpaceOnUse" color-interpolation-filters="sRGB">
<feFlood flood-opacity="0" result="BackgroundImageFix"/>
<feColorMatrix in="SourceAlpha" type="matrix" values="0 0 0 0 0 0 0 0 0 0 0 0 0 0 0 0 0 0 127 0" result="hardAlpha"/>
<feOffset dx="0.590441" dy="0.885662"/>
<feGaussianBlur stdDeviation="0.295221"/>
<feComposite in2="hardAlpha" operator="out"/>
<feColorMatrix type="matrix" values="0 0 0 0 0.560784 0 0 0 0 0.254902 0 0 0 0 0.952941 0 0 0 0.35 0"/>
<feBlend mode="normal" in2="BackgroundImageFix" result="effect1_dropShadow_235_1714"/>
<feColorMatrix in="SourceAlpha" type="matrix" values="0 0 0 0 0 0 0 0 0 0 0 0 0 0 0 0 0 0 127 0" result="hardAlpha"/>
<feOffset dy="1.18088"/>
<feGaussianBlur stdDeviation="2.95221"/>
<feComposite in2="hardAlpha" operator="out"/>
<feColorMatrix type="matrix" values="0 0 0 0 0.494118 0 0 0 0 0.0823529 0 0 0 0 1 0 0 0 0.2 0"/>
<feBlend mode="normal" in2="effect1_dropShadow_235_1714" result="effect2_dropShadow_235_1714"/>
<feBlend mode="normal" in="SourceGraphic" in2="effect2_dropShadow_235_1714" result="shape"/>
</filter>
<filter id="filter5_dd_235_1714" x="4.09852" y="4.94127" width="50.3569" height="32.5046" filterUnits="userSpaceOnUse" color-interpolation-filters="sRGB">
<feFlood flood-opacity="0" result="BackgroundImageFix"/>
<feColorMatrix in="SourceAlpha" type="matrix" values="0 0 0 0 0 0 0 0 0 0 0 0 0 0 0 0 0 0 127 0" result="hardAlpha"/>
<feOffset dx="0.885662" dy="0.885662"/>
<feGaussianBlur stdDeviation="0.295221"/>
<feComposite in2="hardAlpha" operator="out"/>
<feColorMatrix type="matrix" values="0 0 0 0 0.560784 0 0 0 0 0.254902 0 0 0 0 0.952941 0 0 0 0.5 0"/>
<feBlend mode="normal" in2="BackgroundImageFix" result="effect1_dropShadow_235_1714"/>
<feColorMatrix in="SourceAlpha" type="matrix" values="0 0 0 0 0 0 0 0 0 0 0 0 0 0 0 0 0 0 127 0" result="hardAlpha"/>
<feOffset dy="1.18088"/>
<feGaussianBlur stdDeviation="2.95221"/>
<feComposite in2="hardAlpha" operator="out"/>
<feColorMatrix type="matrix" values="0 0 0 0 0.492543 0 0 0 0 0.0808334 0 0 0 0 1 0 0 0 0.2 0"/>
<feBlend mode="normal" in2="effect1_dropShadow_235_1714" result="effect2_dropShadow_235_1714"/>
<feBlend mode="normal" in="SourceGraphic" in2="effect2_dropShadow_235_1714" result="shape"/>
</filter>
<filter id="filter6_dd_235_1714" x="7.13929" y="20.8512" width="38.8042" height="23.503" filterUnits="userSpaceOnUse" color-interpolation-filters="sRGB">
<feFlood flood-opacity="0" result="BackgroundImageFix"/>
<feColorMatrix in="SourceAlpha" type="matrix" values="0 0 0 0 0 0 0 0 0 0 0 0 0 0 0 0 0 0 127 0" result="hardAlpha"/>
<feOffset dx="0.590441" dy="0.885662"/>
<feGaussianBlur stdDeviation="0.295221"/>
<feComposite in2="hardAlpha" operator="out"/>
<feColorMatrix type="matrix" values="0 0 0 0 0.560784 0 0 0 0 0.254902 0 0 0 0 0.952941 0 0 0 0.35 0"/>
<feBlend mode="normal" in2="BackgroundImageFix" result="effect1_dropShadow_235_1714"/>
<feColorMatrix in="SourceAlpha" type="matrix" values="0 0 0 0 0 0 0 0 0 0 0 0 0 0 0 0 0 0 127 0" result="hardAlpha"/>
<feOffset dy="1.18088"/>
<feGaussianBlur stdDeviation="2.95221"/>
<feComposite in2="hardAlpha" operator="out"/>
<feColorMatrix type="matrix" values="0 0 0 0 0.494118 0 0 0 0 0.0823529 0 0 0 0 1 0 0 0 0.2 0"/>
<feBlend mode="normal" in2="effect1_dropShadow_235_1714" result="effect2_dropShadow_235_1714"/>
<feBlend mode="normal" in="SourceGraphic" in2="effect2_dropShadow_235_1714" result="shape"/>
</filter>
<filter id="filter7_dd_235_1714" x="2.13612" y="2.97825" width="50.3569" height="32.5046" filterUnits="userSpaceOnUse" color-interpolation-filters="sRGB">
<feFlood flood-opacity="0" result="BackgroundImageFix"/>
<feColorMatrix in="SourceAlpha" type="matrix" values="0 0 0 0 0 0 0 0 0 0 0 0 0 0 0 0 0 0 127 0" result="hardAlpha"/>
<feOffset dx="0.885662" dy="0.885662"/>
<feGaussianBlur stdDeviation="0.295221"/>
<feComposite in2="hardAlpha" operator="out"/>
<feColorMatrix type="matrix" values="0 0 0 0 0.560784 0 0 0 0 0.254902 0 0 0 0 0.952941 0 0 0 0.5 0"/>
<feBlend mode="normal" in2="BackgroundImageFix" result="effect1_dropShadow_235_1714"/>
<feColorMatrix in="SourceAlpha" type="matrix" values="0 0 0 0 0 0 0 0 0 0 0 0 0 0 0 0 0 0 127 0" result="hardAlpha"/>
<feOffset dy="1.18088"/>
<feGaussianBlur stdDeviation="2.95221"/>
<feComposite in2="hardAlpha" operator="out"/>
<feColorMatrix type="matrix" values="0 0 0 0 0.492543 0 0 0 0 0.0808334 0 0 0 0 1 0 0 0 0.2 0"/>
<feBlend mode="normal" in2="effect1_dropShadow_235_1714" result="effect2_dropShadow_235_1714"/>
<feBlend mode="normal" in="SourceGraphic" in2="effect2_dropShadow_235_1714" result="shape"/>
</filter>
<filter id="filter8_dd_235_1714" x="5.04603" y="18.7582" width="38.8042" height="23.503" filterUnits="userSpaceOnUse" color-interpolation-filters="sRGB">
<feFlood flood-opacity="0" result="BackgroundImageFix"/>
<feColorMatrix in="SourceAlpha" type="matrix" values="0 0 0 0 0 0 0 0 0 0 0 0 0 0 0 0 0 0 127 0" result="hardAlpha"/>
<feOffset dx="0.590441" dy="0.885662"/>
<feGaussianBlur stdDeviation="0.295221"/>
<feComposite in2="hardAlpha" operator="out"/>
<feColorMatrix type="matrix" values="0 0 0 0 0.560784 0 0 0 0 0.254902 0 0 0 0 0.952941 0 0 0 0.35 0"/>
<feBlend mode="normal" in2="BackgroundImageFix" result="effect1_dropShadow_235_1714"/>
<feColorMatrix in="SourceAlpha" type="matrix" values="0 0 0 0 0 0 0 0 0 0 0 0 0 0 0 0 0 0 127 0" result="hardAlpha"/>
<feOffset dy="1.18088"/>
<feGaussianBlur stdDeviation="2.95221"/>
<feComposite in2="hardAlpha" operator="out"/>
<feColorMatrix type="matrix" values="0 0 0 0 0.494118 0 0 0 0 0.0823529 0 0 0 0 1 0 0 0 0.2 0"/>
<feBlend mode="normal" in2="effect1_dropShadow_235_1714" result="effect2_dropShadow_235_1714"/>
<feBlend mode="normal" in="SourceGraphic" in2="effect2_dropShadow_235_1714" result="shape"/>
</filter>
<filter id="filter9_dd_235_1714" x="0.0428534" y="0.885235" width="50.3569" height="32.5046" filterUnits="userSpaceOnUse" color-interpolation-filters="sRGB">
<feFlood flood-opacity="0" result="BackgroundImageFix"/>
<feColorMatrix in="SourceAlpha" type="matrix" values="0 0 0 0 0 0 0 0 0 0 0 0 0 0 0 0 0 0 127 0" result="hardAlpha"/>
<feOffset dx="0.885662" dy="0.885662"/>
<feGaussianBlur stdDeviation="0.295221"/>
<feComposite in2="hardAlpha" operator="out"/>
<feColorMatrix type="matrix" values="0 0 0 0 0.560784 0 0 0 0 0.254902 0 0 0 0 0.952941 0 0 0 0.5 0"/>
<feBlend mode="normal" in2="BackgroundImageFix" result="effect1_dropShadow_235_1714"/>
<feColorMatrix in="SourceAlpha" type="matrix" values="0 0 0 0 0 0 0 0 0 0 0 0 0 0 0 0 0 0 127 0" result="hardAlpha"/>
<feOffset dy="1.18088"/>
<feGaussianBlur stdDeviation="2.95221"/>
<feComposite in2="hardAlpha" operator="out"/>
<feColorMatrix type="matrix" values="0 0 0 0 0.492543 0 0 0 0 0.0808334 0 0 0 0 1 0 0 0 0.2 0"/>
<feBlend mode="normal" in2="effect1_dropShadow_235_1714" result="effect2_dropShadow_235_1714"/>
<feBlend mode="normal" in="SourceGraphic" in2="effect2_dropShadow_235_1714" result="shape"/>
</filter>
<linearGradient id="paint0_linear_235_1714" x1="39.2072" y1="22.892" x2="13.8149" y2="18.9585" gradientUnits="userSpaceOnUse">
<stop offset="0.430208" stop-color="#7E15FF"/>
<stop offset="0.935417" stop-color="#A66FEB"/>
<stop offset="1" stop-color="#A66FEB"/>
</linearGradient>
<linearGradient id="paint1_linear_235_1714" x1="37.5063" y1="21.3213" x2="12.114" y2="17.3878" gradientUnits="userSpaceOnUse">
<stop offset="0.430208" stop-color="#7E15FF"/>
<stop offset="0.935417" stop-color="#A66FEB"/>
<stop offset="1" stop-color="#A66FEB"/>
</linearGradient>
<linearGradient id="paint2_linear_235_1714" x1="36.3288" y1="19.6211" x2="10.9365" y2="15.6876" gradientUnits="userSpaceOnUse">
<stop offset="0.430208" stop-color="#7E15FF"/>
<stop offset="0.935417" stop-color="#A66FEB"/>
<stop offset="1" stop-color="#A66FEB"/>
</linearGradient>
<linearGradient id="paint3_linear_235_1714" x1="34.3664" y1="17.6581" x2="8.97408" y2="13.7246" gradientUnits="userSpaceOnUse">
<stop offset="0.430208" stop-color="#7E15FF"/>
<stop offset="0.935417" stop-color="#A66FEB"/>
<stop offset="1" stop-color="#A66FEB"/>
</linearGradient>
<linearGradient id="paint4_linear_235_1714" x1="32.2732" y1="15.5651" x2="6.88082" y2="11.6316" gradientUnits="userSpaceOnUse">
<stop offset="0.430208" stop-color="#7E15FF"/>
<stop offset="0.935417" stop-color="#A66FEB"/>
<stop offset="1" stop-color="#A66FEB"/>
</linearGradient>
</defs>
</svg>
