<svg width="15" height="21" viewBox="0 0 15 21" fill="none" xmlns="http://www.w3.org/2000/svg">
<path d="M8.4375 9.75781C8.4375 9.48438 8.20312 9.28906 7.96875 9.28906H7.03125C6.75781 9.28906 6.5625 9.48438 6.5625 9.75781V13.0391H4.64844C4.21875 13.0391 4.02344 13.5469 4.29688 13.8203L7.10938 16.6328C7.30469 16.8281 7.65625 16.8281 7.85156 16.6328L10.6641 13.8203C10.9375 13.5469 10.7422 13.0391 10.3125 13.0391H8.4375V9.75781ZM14.4141 4.32812L11.1328 1.08594C10.7812 0.734375 10.3125 0.5 9.84375 0.5H1.83594C0.820312 0.539062 0 1.35938 0 2.41406V18.6641C0 19.6797 0.820312 20.5 1.83594 20.5H13.0859C14.1406 20.5 15 19.6797 15 18.6641V5.65625C15 5.1875 14.7656 4.67969 14.4141 4.32812ZM9.96094 2.53125L12.9688 5.53906H9.96094V2.53125ZM13.125 18.6641H1.83594V2.41406H8.08594V6.47656C8.08594 6.98438 8.51562 7.41406 9.02344 7.41406H13.125V18.6641Z" fill="#00CC99"/>
</svg>
