<svg width="643" height="75" viewBox="0 0 643 75" fill="none" xmlns="http://www.w3.org/2000/svg">
<g clip-path="url(#clip0_142_5024)">
<path d="M109.506 60.2058C103.723 60.2058 98.9497 58.1227 95.3006 54.0089C91.778 50.0261 89.9978 44.9952 89.9978 39.0341C89.9978 33.073 91.778 28.0421 95.3006 24.0724C98.9497 19.9586 103.723 17.8755 109.506 17.8755C114.102 17.8755 118.143 19.1463 121.514 21.6618C124.746 24.1379 127.007 27.4394 128.219 31.5008L128.749 33.2564H120.1L119.771 32.4048C119.014 30.4265 117.853 28.8675 116.223 27.6229C114.607 26.4044 112.801 25.8148 110.705 25.8148C108.534 25.8148 106.677 26.1687 105.213 26.8499C103.736 27.5311 102.485 28.4744 101.475 29.6536C99.2527 32.1952 98.18 35.2609 98.18 39.0472C98.18 42.8335 99.2527 45.8992 101.462 48.4277C103.698 51.0218 106.715 52.2795 110.705 52.2795C112.814 52.2795 114.62 51.6899 116.223 50.4715C117.865 49.2269 119.027 47.6678 119.771 45.6895L120.1 44.838H128.749L128.219 46.5935C127.007 50.6418 124.759 53.9565 121.527 56.4195C118.156 58.935 114.115 60.2058 109.506 60.2058Z" fill="white"/>
<path d="M182.706 18.4888L171.468 47.6522L160.432 18.4888L151.48 18.5674C149.308 18.6591 147.401 19.1045 145.822 19.9037C143.411 21.0697 141.454 22.6026 139.977 24.5154V18.4888H131.819V59.5876H139.977V42.0187C139.977 37.9442 141.075 34.3937 143.247 31.4853C145.519 28.472 148.386 27.0177 151.984 27.0177H154.838L167.061 57.6747L159.737 74.785H168.602L191.62 18.4757H182.706V18.4888Z" fill="white"/>
<path d="M192.642 74.8V18.4906H200.798V22.3293C203.841 19.3815 207.844 17.8879 212.743 17.8879C218.438 17.8879 223.123 19.9842 226.67 24.098C230.181 28.1201 231.961 33.151 231.961 39.0465C231.961 44.9421 230.181 49.9862 226.67 54.0082C223.123 58.1221 218.325 60.2182 212.377 60.2182C207.705 60.2182 203.829 58.7116 200.798 55.7245V74.8131H192.642V74.8ZM212.011 25.8011C208.387 25.8011 205.609 27.0458 203.538 29.6136C201.506 32.1029 200.508 35.1817 200.508 39.0335C200.508 42.8328 201.518 46.0033 203.526 48.4533C205.609 51.0343 208.374 52.2789 212.011 52.2789C215.597 52.2789 218.425 51.0211 220.66 48.4271C222.782 45.9509 223.805 42.8721 223.805 39.0335C223.805 35.1948 222.769 32.1291 220.648 29.6398C218.425 27.0589 215.597 25.8011 212.011 25.8011Z" fill="white"/>
<path d="M285.309 18.4901V41.9545C285.309 45.0333 284.375 47.4833 282.455 49.4223C280.523 51.335 278.226 52.2783 275.435 52.2783C272.72 52.2783 270.586 51.3874 268.907 49.5532C267.202 47.6929 266.382 45.243 266.382 42.0331V18.4901H247.366V4.74683H239.209V18.4901H231.657V26.2591H239.209V59.5889H247.366V26.2591H258.224V42.1772C258.224 47.6405 259.891 52.1211 263.187 55.4882C264.639 57.0472 266.369 58.2394 268.301 59.0255C270.22 59.7985 272.518 60.1915 275.132 60.1915C277.847 60.1915 280.296 59.4709 282.417 58.056C283.453 57.3747 284.413 56.6018 285.297 55.7501V59.5757H293.453V18.477H285.309V18.4901Z" fill="white"/>
<path d="M349.175 59.5895V35.1949C349.175 32.3389 348.442 30.0723 346.914 28.2643C345.437 26.6004 343.594 25.8013 341.296 25.8013C338.808 25.8013 336.813 26.6004 335.172 28.2643C333.442 29.9675 332.608 32.2602 332.608 35.2866V59.6027H324.452V35.208C324.452 32.3519 323.719 30.0854 322.191 28.2775C320.714 26.6136 318.87 25.8144 316.573 25.8144C314.085 25.8144 312.09 26.6136 310.449 28.2775C308.718 29.9806 307.885 32.2734 307.885 35.2997V59.6158H299.728V18.517H307.885V21.7923C310.436 19.2114 313.769 17.9143 317.835 17.9143C320.538 17.9143 323.075 18.6742 325.373 20.1546C327.065 21.2551 328.492 22.6832 329.654 24.4387C331.447 21.9233 333.909 20.0499 337.003 18.8576C338.569 18.2419 340.362 17.9274 342.306 17.9274C344.276 17.9274 346.195 18.3336 348.001 19.1458C349.806 19.9582 351.423 21.1373 352.824 22.6308C355.816 25.9585 357.332 30.1509 357.332 35.0902V59.6288H349.175V59.5895Z" fill="white"/>
<path d="M33.2139 68.313C46.0717 68.313 56.495 63.583 56.495 57.7482C56.495 51.9134 46.0717 47.1833 33.2139 47.1833C20.356 47.1833 9.93262 51.9134 9.93262 57.7482C9.93262 63.583 20.356 68.313 33.2139 68.313Z" fill="white"/>
<path d="M57.7826 24.7655C55.5162 27.2806 47.6069 31.3294 34.4882 31.3294C18.755 31.3294 10.5107 25.5084 10.5107 23.4909C10.5107 21.4734 18.755 15.6525 34.4882 15.6525C47.6069 15.6525 55.5162 19.7012 57.7826 22.2163L65.1992 14.521C63.4452 12.633 60.916 10.7517 57.2702 9.09545C51.0951 6.28724 43.0084 4.74683 34.4882 4.74683C25.968 4.74683 17.8813 6.29406 11.7063 9.09545C1.52405 13.7303 0 20.1034 0 23.4909C0 26.8785 1.52405 33.2515 11.7063 37.8864C17.8813 40.6945 25.968 42.235 34.4882 42.235C43.0084 42.235 51.0951 40.6877 57.2702 37.8864C60.916 36.2301 63.4452 34.3488 65.1992 32.4608L57.7826 24.7655Z" fill="url(#paint0_linear_142_5024)"/>
</g>
<path d="M435.393 55.6456V19.282H447.679C450.52 19.282 452.852 19.7673 454.675 20.738C456.498 21.6968 457.848 23.0166 458.724 24.6975C459.599 26.3783 460.037 28.29 460.037 30.4326C460.037 32.5751 459.599 34.4749 458.724 36.1321C457.848 37.7893 456.504 39.0914 454.693 40.0384C452.882 40.9735 450.568 41.4411 447.75 41.4411H437.807V37.4638H447.608C449.55 37.4638 451.112 37.1797 452.296 36.6115C453.492 36.0434 454.356 35.2384 454.888 34.1968C455.433 33.1433 455.705 31.8885 455.705 30.4326C455.705 28.9766 455.433 27.7041 454.888 26.6151C454.344 25.5261 453.474 24.6856 452.278 24.0938C451.083 23.4901 449.502 23.1882 447.537 23.1882H439.796V55.6456H435.393ZM452.509 39.3104L461.458 55.6456H456.344L447.537 39.3104H452.509ZM477.948 56.2138C475.321 56.2138 473.054 55.6338 471.148 54.4738C469.254 53.3019 467.792 51.6684 466.762 49.5732C465.744 47.4662 465.235 45.0159 465.235 42.2223C465.235 39.4288 465.744 36.9667 466.762 34.836C467.792 32.6935 469.225 31.0244 471.059 29.8289C472.906 28.6215 475.06 28.0178 477.522 28.0178C478.943 28.0178 480.345 28.2545 481.73 28.728C483.115 29.2015 484.376 29.9709 485.512 31.0363C486.649 32.0898 487.554 33.4865 488.229 35.2266C488.904 36.9667 489.241 39.1092 489.241 41.6542V43.4297H468.218V39.8076H484.98C484.98 38.2687 484.672 36.8956 484.056 35.6882C483.453 34.4809 482.589 33.528 481.464 32.8296C480.351 32.1312 479.037 31.782 477.522 31.782C475.853 31.782 474.409 32.1963 473.19 33.0249C471.983 33.8417 471.053 34.907 470.402 36.2209C469.751 37.5348 469.426 38.9435 469.426 40.4468V42.8615C469.426 44.9212 469.781 46.6672 470.491 48.0995C471.213 49.5199 472.213 50.603 473.492 51.3488C474.77 52.0827 476.256 52.4496 477.948 52.4496C479.049 52.4496 480.044 52.2957 480.931 51.988C481.831 51.6684 482.606 51.1949 483.257 50.5675C483.908 49.9283 484.412 49.1352 484.767 48.1882L488.815 49.3246C488.389 50.6977 487.673 51.9051 486.667 52.9468C485.66 53.9766 484.417 54.7815 482.938 55.3615C481.458 55.9297 479.795 56.2138 477.948 56.2138ZM495.615 65.8729V28.3729H499.664V32.7053H500.161C500.469 32.2318 500.895 31.6281 501.439 30.8942C501.996 30.1485 502.789 29.4856 503.819 28.9056C504.86 28.3137 506.269 28.0178 508.044 28.0178C510.341 28.0178 512.365 28.5919 514.117 29.7401C515.869 30.8883 517.236 32.5159 518.218 34.6229C519.201 36.7299 519.692 39.2157 519.692 42.0803C519.692 44.9685 519.201 47.4721 518.218 49.5909C517.236 51.6979 515.875 53.3315 514.135 54.4915C512.394 55.6397 510.388 56.2138 508.115 56.2138C506.363 56.2138 504.961 55.9238 503.907 55.3438C502.854 54.7519 502.043 54.0831 501.475 53.3374C500.907 52.5798 500.469 51.9524 500.161 51.4553H499.806V65.8729H495.615ZM499.735 42.0093C499.735 44.0689 500.037 45.8859 500.64 47.4603C501.244 49.0228 502.126 50.2479 503.286 51.1357C504.446 52.0116 505.866 52.4496 507.547 52.4496C509.299 52.4496 510.761 51.988 511.933 51.0647C513.117 50.1295 514.004 48.8748 514.596 47.3005C515.2 45.7143 515.502 43.9506 515.502 42.0093C515.502 40.0917 515.206 38.3634 514.614 36.8246C514.034 35.2739 513.152 34.0488 511.968 33.1492C510.796 32.2377 509.323 31.782 507.547 31.782C505.843 31.782 504.41 32.214 503.25 33.0782C502.09 33.9304 501.214 35.126 500.622 36.6648C500.031 38.1918 499.735 39.9733 499.735 42.0093ZM537.164 56.2138C534.702 56.2138 532.541 55.6279 530.683 54.456C528.836 53.2841 527.392 51.6447 526.35 49.5377C525.321 47.4307 524.806 44.9685 524.806 42.1513C524.806 39.3104 525.321 36.8305 526.35 34.7117C527.392 32.5928 528.836 30.9475 530.683 29.7756C532.541 28.6037 534.702 28.0178 537.164 28.0178C539.626 28.0178 541.78 28.6037 543.627 29.7756C545.485 30.9475 546.929 32.5928 547.959 34.7117C549.001 36.8305 549.522 39.3104 549.522 42.1513C549.522 44.9685 549.001 47.4307 547.959 49.5377C546.929 51.6447 545.485 53.2841 543.627 54.456C541.78 55.6279 539.626 56.2138 537.164 56.2138ZM537.164 52.4496C539.034 52.4496 540.573 51.9702 541.78 51.0114C542.988 50.0526 543.881 48.7919 544.461 47.2294C545.041 45.6669 545.331 43.9742 545.331 42.1513C545.331 40.3284 545.041 38.6298 544.461 37.0554C543.881 35.4811 542.988 34.2086 541.78 33.238C540.573 32.2673 539.034 31.782 537.164 31.782C535.293 31.782 533.755 32.2673 532.547 33.238C531.34 34.2086 530.446 35.4811 529.866 37.0554C529.286 38.6298 528.996 40.3284 528.996 42.1513C528.996 43.9742 529.286 45.6669 529.866 47.2294C530.446 48.7919 531.34 50.0526 532.547 51.0114C533.755 51.9702 535.293 52.4496 537.164 52.4496ZM555.918 55.6456V28.3729H559.966V32.4922H560.25C560.748 31.1428 561.647 30.0479 562.949 29.2074C564.251 28.367 565.719 27.9468 567.353 27.9468C567.661 27.9468 568.045 27.9527 568.507 27.9645C568.969 27.9764 569.318 27.9941 569.554 28.0178V32.2792C569.412 32.2436 569.087 32.1904 568.578 32.1194C568.081 32.0365 567.554 31.9951 566.998 31.9951C565.672 31.9951 564.488 32.2732 563.447 32.8296C562.417 33.3741 561.6 34.1317 560.996 35.1023C560.404 36.0611 560.108 37.156 560.108 38.3871V55.6456H555.918ZM588.091 28.3729V31.924H573.958V28.3729H588.091ZM578.077 21.8388H582.268V47.8331C582.268 49.0168 582.439 49.9046 582.782 50.4965C583.138 51.0765 583.587 51.4671 584.132 51.6684C584.688 51.8578 585.274 51.9524 585.89 51.9524C586.351 51.9524 586.73 51.9288 587.026 51.8814C587.322 51.8222 587.559 51.7749 587.736 51.7394L588.589 55.5036C588.304 55.6101 587.908 55.7167 587.399 55.8232C586.89 55.9416 586.245 56.0007 585.464 56.0007C584.28 56.0007 583.12 55.7462 581.983 55.2372C580.859 54.7283 579.924 53.9529 579.178 52.9113C578.444 51.8696 578.077 50.5557 578.077 48.9695V21.8388ZM613.225 34.4809L609.46 35.5462C609.224 34.9188 608.874 34.3092 608.413 33.7174C607.963 33.1137 607.347 32.6165 606.566 32.2259C605.785 31.8353 604.785 31.6399 603.565 31.6399C601.896 31.6399 600.506 32.0247 599.393 32.7941C598.292 33.5516 597.742 34.5164 597.742 35.6882C597.742 36.7299 598.12 37.5526 598.878 38.1563C599.636 38.76 600.819 39.2631 602.429 39.6655L606.477 40.6598C608.916 41.2517 610.733 42.1572 611.928 43.3765C613.124 44.5838 613.722 46.1404 613.722 48.0462C613.722 49.6087 613.272 51.0055 612.372 52.2365C611.485 53.4676 610.242 54.4382 608.644 55.1485C607.046 55.8587 605.187 56.2138 603.068 56.2138C600.287 56.2138 597.984 55.6101 596.161 54.4027C594.338 53.1953 593.184 51.4316 592.699 49.1115L596.676 48.1172C597.055 49.585 597.771 50.6859 598.825 51.4198C599.89 52.1537 601.281 52.5206 602.997 52.5206C604.95 52.5206 606.501 52.1063 607.649 51.2777C608.809 50.4373 609.389 49.4311 609.389 48.2593C609.389 47.3123 609.058 46.5192 608.395 45.88C607.732 45.229 606.714 44.7436 605.341 44.424L600.796 43.3587C598.298 42.7668 596.463 41.8495 595.291 40.6066C594.131 39.3518 593.551 37.7834 593.551 35.9013C593.551 34.3625 593.983 33.0012 594.847 31.8175C595.723 30.6338 596.913 29.7046 598.416 29.0299C599.931 28.3551 601.648 28.0178 603.565 28.0178C606.264 28.0178 608.383 28.6096 609.922 29.7934C611.473 30.9771 612.574 32.5396 613.225 34.4809Z" fill="white"/>
<line x1="398.642" x2="398.642" y2="75" stroke="white"/>
<defs>
<linearGradient id="paint0_linear_142_5024" x1="65.1992" y1="4.74843" x2="0" y2="4.74843" gradientUnits="userSpaceOnUse">
<stop stop-color="#8F41F3"/>
<stop offset="1" stop-color="#5902C8"/>
</linearGradient>
<clipPath id="clip0_142_5024">
<rect width="357.333" height="70.2532" fill="white" transform="translate(0 4.74683)"/>
</clipPath>
</defs>
</svg>
